<?xml version="1.0" encoding="UTF-8"?>
<svg data-bbox="0 0 113.39 113.39" viewBox="0 0 113.39 113.39" xmlns="http://www.w3.org/2000/svg" data-type="color">
    <g>
        <path d="M78.13 0H23.51c-6.49 0-11.75 5.26-11.75 11.75S17.02 23.5 23.51 23.5h54.62c6.49 0 11.75 5.26 11.75 11.75v4.67H36.73C16.44 39.93 0 56.37 0 76.66s16.44 36.73 36.73 36.73h59.03c9.74 0 17.63-7.89 17.63-17.63v-60.5C113.39 15.79 97.6 0 78.13 0Zm11.75 84c0 3.25-2.63 5.88-5.88 5.88H36.73c-7.3 0-13.22-5.92-13.22-13.22s5.92-13.22 13.22-13.22h53.15v20.57Z" fill="#fbb03b" data-color="1"/>
    </g>
</svg>
